<mxfile host="app.diagrams.net" modified="2023-09-17T12:08:42.208Z" agent="Mozilla/5.0 (Windows NT 10.0; Win64; x64) AppleWebKit/537.36 (KHTML, like Gecko) Chrome/116.0.0.0 Safari/537.36" etag="r03rw-FfxhGtDElWsvUS" version="21.7.5" type="device">
  <diagram name="Page-1" id="b5NVP_9jVtskwhASZ5UH">
    <mxGraphModel dx="1972" dy="711" grid="1" gridSize="10" guides="1" tooltips="1" connect="1" arrows="1" fold="1" page="1" pageScale="1" pageWidth="850" pageHeight="1100" math="0" shadow="0">
      <root>
        <mxCell id="0" />
        <mxCell id="1" parent="0" />
        <mxCell id="9emtBQFoJuCTRoUykFiL-3" style="edgeStyle=orthogonalEdgeStyle;rounded=0;orthogonalLoop=1;jettySize=auto;html=1;" edge="1" parent="1" source="cFowtM8nGDFWOl0pQlT--1" target="9emtBQFoJuCTRoUykFiL-2">
          <mxGeometry relative="1" as="geometry" />
        </mxCell>
        <mxCell id="cFowtM8nGDFWOl0pQlT--1" value="1. Welcome" style="rounded=0;whiteSpace=wrap;html=1;fillColor=#76608a;strokeColor=#432D57;fontColor=#ffffff;" parent="1" vertex="1">
          <mxGeometry x="162.5" y="90" width="75" height="40" as="geometry" />
        </mxCell>
        <mxCell id="9emtBQFoJuCTRoUykFiL-29" style="edgeStyle=orthogonalEdgeStyle;rounded=0;orthogonalLoop=1;jettySize=auto;html=1;" edge="1" parent="1" source="9emtBQFoJuCTRoUykFiL-1" target="9emtBQFoJuCTRoUykFiL-28">
          <mxGeometry relative="1" as="geometry" />
        </mxCell>
        <mxCell id="9emtBQFoJuCTRoUykFiL-1" value="5. Suggest&lt;br&gt;Restaurant" style="rounded=0;whiteSpace=wrap;html=1;fillColor=#76608a;fontColor=#ffffff;strokeColor=#432D57;" vertex="1" parent="1">
          <mxGeometry x="140" y="840" width="120" height="60" as="geometry" />
        </mxCell>
        <mxCell id="9emtBQFoJuCTRoUykFiL-7" style="edgeStyle=orthogonalEdgeStyle;rounded=0;orthogonalLoop=1;jettySize=auto;html=1;entryX=0.5;entryY=0;entryDx=0;entryDy=0;" edge="1" parent="1" source="9emtBQFoJuCTRoUykFiL-2" target="9emtBQFoJuCTRoUykFiL-4">
          <mxGeometry relative="1" as="geometry" />
        </mxCell>
        <mxCell id="9emtBQFoJuCTRoUykFiL-2" value="Express references" style="ellipse;whiteSpace=wrap;html=1;fillColor=#6d8764;fontColor=#ffffff;strokeColor=#3A5431;" vertex="1" parent="1">
          <mxGeometry x="140" y="160" width="120" height="50" as="geometry" />
        </mxCell>
        <mxCell id="9emtBQFoJuCTRoUykFiL-8" value="no" style="edgeStyle=orthogonalEdgeStyle;rounded=0;orthogonalLoop=1;jettySize=auto;html=1;entryX=0;entryY=0.5;entryDx=0;entryDy=0;" edge="1" parent="1" source="9emtBQFoJuCTRoUykFiL-4" target="9emtBQFoJuCTRoUykFiL-9">
          <mxGeometry relative="1" as="geometry">
            <mxPoint x="290" y="290" as="targetPoint" />
          </mxGeometry>
        </mxCell>
        <mxCell id="9emtBQFoJuCTRoUykFiL-10" value="yes" style="edgeStyle=orthogonalEdgeStyle;rounded=0;orthogonalLoop=1;jettySize=auto;html=1;entryX=0.5;entryY=0;entryDx=0;entryDy=0;" edge="1" parent="1" source="9emtBQFoJuCTRoUykFiL-4" target="9emtBQFoJuCTRoUykFiL-5">
          <mxGeometry relative="1" as="geometry" />
        </mxCell>
        <mxCell id="9emtBQFoJuCTRoUykFiL-4" value="Area&lt;br&gt;expressed?" style="rhombus;whiteSpace=wrap;html=1;fillColor=#76608a;fontColor=#ffffff;strokeColor=#432D57;" vertex="1" parent="1">
          <mxGeometry x="150" y="240" width="100" height="80" as="geometry" />
        </mxCell>
        <mxCell id="9emtBQFoJuCTRoUykFiL-17" value="no" style="edgeStyle=orthogonalEdgeStyle;rounded=0;orthogonalLoop=1;jettySize=auto;html=1;" edge="1" parent="1" source="9emtBQFoJuCTRoUykFiL-5" target="9emtBQFoJuCTRoUykFiL-15">
          <mxGeometry relative="1" as="geometry" />
        </mxCell>
        <mxCell id="9emtBQFoJuCTRoUykFiL-18" value="yes" style="edgeStyle=orthogonalEdgeStyle;rounded=0;orthogonalLoop=1;jettySize=auto;html=1;" edge="1" parent="1" source="9emtBQFoJuCTRoUykFiL-5" target="9emtBQFoJuCTRoUykFiL-6">
          <mxGeometry relative="1" as="geometry" />
        </mxCell>
        <mxCell id="9emtBQFoJuCTRoUykFiL-5" value="Price range&lt;br&gt;expressed?" style="rhombus;whiteSpace=wrap;html=1;fillColor=#76608a;fontColor=#ffffff;strokeColor=#432D57;" vertex="1" parent="1">
          <mxGeometry x="150" y="400" width="100" height="85" as="geometry" />
        </mxCell>
        <mxCell id="9emtBQFoJuCTRoUykFiL-23" value="no" style="edgeStyle=orthogonalEdgeStyle;rounded=0;orthogonalLoop=1;jettySize=auto;html=1;" edge="1" parent="1" source="9emtBQFoJuCTRoUykFiL-6" target="9emtBQFoJuCTRoUykFiL-22">
          <mxGeometry relative="1" as="geometry" />
        </mxCell>
        <mxCell id="9emtBQFoJuCTRoUykFiL-27" value="yes" style="edgeStyle=orthogonalEdgeStyle;rounded=0;orthogonalLoop=1;jettySize=auto;html=1;entryX=0.5;entryY=0;entryDx=0;entryDy=0;" edge="1" parent="1" source="9emtBQFoJuCTRoUykFiL-6" target="9emtBQFoJuCTRoUykFiL-31">
          <mxGeometry relative="1" as="geometry">
            <mxPoint x="200" y="710" as="targetPoint" />
          </mxGeometry>
        </mxCell>
        <mxCell id="9emtBQFoJuCTRoUykFiL-6" value="Food type&amp;nbsp;&lt;br&gt;expressed?" style="rhombus;whiteSpace=wrap;html=1;fillColor=#76608a;fontColor=#ffffff;strokeColor=#432D57;" vertex="1" parent="1">
          <mxGeometry x="155" y="560" width="90" height="80" as="geometry" />
        </mxCell>
        <mxCell id="9emtBQFoJuCTRoUykFiL-12" style="edgeStyle=orthogonalEdgeStyle;rounded=0;orthogonalLoop=1;jettySize=auto;html=1;entryX=0.5;entryY=0;entryDx=0;entryDy=0;" edge="1" parent="1" source="9emtBQFoJuCTRoUykFiL-9" target="9emtBQFoJuCTRoUykFiL-11">
          <mxGeometry relative="1" as="geometry" />
        </mxCell>
        <mxCell id="9emtBQFoJuCTRoUykFiL-9" value="2. Ask area" style="rounded=0;whiteSpace=wrap;html=1;fillColor=#76608a;fontColor=#ffffff;strokeColor=#432D57;" vertex="1" parent="1">
          <mxGeometry x="300" y="260" width="80" height="40" as="geometry" />
        </mxCell>
        <mxCell id="9emtBQFoJuCTRoUykFiL-14" style="edgeStyle=orthogonalEdgeStyle;rounded=0;orthogonalLoop=1;jettySize=auto;html=1;exitX=0;exitY=0;exitDx=0;exitDy=0;entryX=1;entryY=1;entryDx=0;entryDy=0;" edge="1" parent="1" source="9emtBQFoJuCTRoUykFiL-11" target="9emtBQFoJuCTRoUykFiL-4">
          <mxGeometry relative="1" as="geometry">
            <Array as="points">
              <mxPoint x="304" y="330" />
              <mxPoint x="260" y="330" />
              <mxPoint x="260" y="310" />
            </Array>
          </mxGeometry>
        </mxCell>
        <mxCell id="9emtBQFoJuCTRoUykFiL-11" value="User response" style="ellipse;whiteSpace=wrap;html=1;fillColor=#6d8764;fontColor=#ffffff;strokeColor=#3A5431;" vertex="1" parent="1">
          <mxGeometry x="295" y="330" width="90" height="50" as="geometry" />
        </mxCell>
        <mxCell id="9emtBQFoJuCTRoUykFiL-20" value="" style="edgeStyle=orthogonalEdgeStyle;rounded=0;orthogonalLoop=1;jettySize=auto;html=1;" edge="1" parent="1" source="9emtBQFoJuCTRoUykFiL-15" target="9emtBQFoJuCTRoUykFiL-19">
          <mxGeometry relative="1" as="geometry" />
        </mxCell>
        <mxCell id="9emtBQFoJuCTRoUykFiL-15" value="3. Ask price range" style="rounded=0;whiteSpace=wrap;html=1;fillColor=#76608a;fontColor=#ffffff;strokeColor=#432D57;" vertex="1" parent="1">
          <mxGeometry x="300" y="422.5" width="80" height="40" as="geometry" />
        </mxCell>
        <mxCell id="9emtBQFoJuCTRoUykFiL-21" style="edgeStyle=orthogonalEdgeStyle;rounded=0;orthogonalLoop=1;jettySize=auto;html=1;exitX=0;exitY=0;exitDx=0;exitDy=0;entryX=1;entryY=1;entryDx=0;entryDy=0;" edge="1" parent="1" source="9emtBQFoJuCTRoUykFiL-19" target="9emtBQFoJuCTRoUykFiL-5">
          <mxGeometry relative="1" as="geometry">
            <Array as="points">
              <mxPoint x="308" y="490" />
              <mxPoint x="225" y="490" />
            </Array>
          </mxGeometry>
        </mxCell>
        <mxCell id="9emtBQFoJuCTRoUykFiL-19" value="User response" style="ellipse;whiteSpace=wrap;html=1;fillColor=#6d8764;fontColor=#ffffff;strokeColor=#3A5431;" vertex="1" parent="1">
          <mxGeometry x="295" y="500" width="90" height="50" as="geometry" />
        </mxCell>
        <mxCell id="9emtBQFoJuCTRoUykFiL-25" value="" style="edgeStyle=orthogonalEdgeStyle;rounded=0;orthogonalLoop=1;jettySize=auto;html=1;" edge="1" parent="1" source="9emtBQFoJuCTRoUykFiL-22" target="9emtBQFoJuCTRoUykFiL-24">
          <mxGeometry relative="1" as="geometry" />
        </mxCell>
        <mxCell id="9emtBQFoJuCTRoUykFiL-22" value="4. Ask food type" style="rounded=0;whiteSpace=wrap;html=1;fillColor=#76608a;fontColor=#ffffff;strokeColor=#432D57;" vertex="1" parent="1">
          <mxGeometry x="300" y="580" width="80" height="40" as="geometry" />
        </mxCell>
        <mxCell id="9emtBQFoJuCTRoUykFiL-26" style="edgeStyle=orthogonalEdgeStyle;rounded=0;orthogonalLoop=1;jettySize=auto;html=1;exitX=0;exitY=0;exitDx=0;exitDy=0;entryX=1;entryY=1;entryDx=0;entryDy=0;" edge="1" parent="1" source="9emtBQFoJuCTRoUykFiL-24" target="9emtBQFoJuCTRoUykFiL-6">
          <mxGeometry relative="1" as="geometry">
            <Array as="points">
              <mxPoint x="268" y="657" />
              <mxPoint x="268" y="630" />
              <mxPoint x="222" y="630" />
            </Array>
          </mxGeometry>
        </mxCell>
        <mxCell id="9emtBQFoJuCTRoUykFiL-24" value="User response" style="ellipse;whiteSpace=wrap;html=1;fillColor=#6d8764;fontColor=#ffffff;strokeColor=#3A5431;" vertex="1" parent="1">
          <mxGeometry x="290" y="650" width="97.5" height="50" as="geometry" />
        </mxCell>
        <mxCell id="9emtBQFoJuCTRoUykFiL-35" value="" style="edgeStyle=orthogonalEdgeStyle;rounded=0;orthogonalLoop=1;jettySize=auto;html=1;" edge="1" parent="1" source="9emtBQFoJuCTRoUykFiL-28" target="9emtBQFoJuCTRoUykFiL-34">
          <mxGeometry relative="1" as="geometry" />
        </mxCell>
        <mxCell id="9emtBQFoJuCTRoUykFiL-28" value="User response" style="ellipse;whiteSpace=wrap;html=1;fillColor=#6d8764;fontColor=#ffffff;strokeColor=#3A5431;" vertex="1" parent="1">
          <mxGeometry x="320" y="840" width="100" height="60" as="geometry" />
        </mxCell>
        <mxCell id="9emtBQFoJuCTRoUykFiL-32" value="yes" style="edgeStyle=orthogonalEdgeStyle;rounded=0;orthogonalLoop=1;jettySize=auto;html=1;" edge="1" parent="1" source="9emtBQFoJuCTRoUykFiL-31" target="9emtBQFoJuCTRoUykFiL-1">
          <mxGeometry relative="1" as="geometry" />
        </mxCell>
        <mxCell id="9emtBQFoJuCTRoUykFiL-33" value="no" style="edgeStyle=orthogonalEdgeStyle;rounded=0;orthogonalLoop=1;jettySize=auto;html=1;entryX=1;entryY=0.5;entryDx=0;entryDy=0;" edge="1" parent="1" source="9emtBQFoJuCTRoUykFiL-31" target="9emtBQFoJuCTRoUykFiL-40">
          <mxGeometry relative="1" as="geometry">
            <mxPoint x="50" y="750" as="targetPoint" />
          </mxGeometry>
        </mxCell>
        <mxCell id="9emtBQFoJuCTRoUykFiL-31" value="Restaurant with preferences possible?" style="rhombus;whiteSpace=wrap;html=1;fillColor=#76608a;fontColor=#ffffff;strokeColor=#432D57;" vertex="1" parent="1">
          <mxGeometry x="125" y="700" width="150" height="100" as="geometry" />
        </mxCell>
        <mxCell id="9emtBQFoJuCTRoUykFiL-36" value="no" style="edgeStyle=orthogonalEdgeStyle;rounded=0;orthogonalLoop=1;jettySize=auto;html=1;entryX=0.5;entryY=1;entryDx=0;entryDy=0;" edge="1" parent="1" target="9emtBQFoJuCTRoUykFiL-1">
          <mxGeometry relative="1" as="geometry">
            <mxPoint x="200" y="960" as="targetPoint" />
            <mxPoint x="500" y="870" as="sourcePoint" />
            <Array as="points">
              <mxPoint x="500" y="960" />
              <mxPoint x="200" y="960" />
            </Array>
          </mxGeometry>
        </mxCell>
        <mxCell id="9emtBQFoJuCTRoUykFiL-39" value="yes" style="edgeStyle=orthogonalEdgeStyle;rounded=0;orthogonalLoop=1;jettySize=auto;html=1;entryX=0;entryY=0.5;entryDx=0;entryDy=0;" edge="1" parent="1" source="9emtBQFoJuCTRoUykFiL-34" target="9emtBQFoJuCTRoUykFiL-46">
          <mxGeometry relative="1" as="geometry">
            <mxPoint x="590" y="870" as="targetPoint" />
          </mxGeometry>
        </mxCell>
        <mxCell id="9emtBQFoJuCTRoUykFiL-34" value="User&amp;nbsp;&lt;br&gt;agrees?" style="rhombus;whiteSpace=wrap;html=1;fillColor=#76608a;fontColor=#ffffff;strokeColor=#432D57;" vertex="1" parent="1">
          <mxGeometry x="460" y="830" width="80" height="80" as="geometry" />
        </mxCell>
        <mxCell id="9emtBQFoJuCTRoUykFiL-42" value="" style="edgeStyle=orthogonalEdgeStyle;rounded=0;orthogonalLoop=1;jettySize=auto;html=1;" edge="1" parent="1" source="9emtBQFoJuCTRoUykFiL-40" target="9emtBQFoJuCTRoUykFiL-41">
          <mxGeometry relative="1" as="geometry" />
        </mxCell>
        <mxCell id="9emtBQFoJuCTRoUykFiL-40" value="6. Express that no restaurant is possible with current information" style="rounded=0;whiteSpace=wrap;html=1;fillColor=#76608a;fontColor=#ffffff;strokeColor=#432D57;" vertex="1" parent="1">
          <mxGeometry x="-90" y="720" width="140" height="60" as="geometry" />
        </mxCell>
        <mxCell id="9emtBQFoJuCTRoUykFiL-43" style="edgeStyle=orthogonalEdgeStyle;rounded=0;orthogonalLoop=1;jettySize=auto;html=1;exitX=0.5;exitY=0;exitDx=0;exitDy=0;entryX=0;entryY=0.5;entryDx=0;entryDy=0;" edge="1" parent="1" source="9emtBQFoJuCTRoUykFiL-41" target="9emtBQFoJuCTRoUykFiL-5">
          <mxGeometry relative="1" as="geometry">
            <mxPoint x="-20" y="500" as="targetPoint" />
          </mxGeometry>
        </mxCell>
        <mxCell id="9emtBQFoJuCTRoUykFiL-41" value="Express new/ reviewed preferences" style="ellipse;whiteSpace=wrap;html=1;fillColor=#6d8764;fontColor=#ffffff;strokeColor=#3A5431;" vertex="1" parent="1">
          <mxGeometry x="-90" y="580" width="140" height="80" as="geometry" />
        </mxCell>
        <mxCell id="9emtBQFoJuCTRoUykFiL-44" value="7. Goodbye" style="rounded=0;whiteSpace=wrap;html=1;fillColor=#76608a;fontColor=#ffffff;strokeColor=#432D57;" vertex="1" parent="1">
          <mxGeometry x="590" y="495" width="120" height="60" as="geometry" />
        </mxCell>
        <mxCell id="9emtBQFoJuCTRoUykFiL-49" value="" style="edgeStyle=orthogonalEdgeStyle;rounded=0;orthogonalLoop=1;jettySize=auto;html=1;" edge="1" parent="1" source="9emtBQFoJuCTRoUykFiL-46" target="9emtBQFoJuCTRoUykFiL-48">
          <mxGeometry relative="1" as="geometry" />
        </mxCell>
        <mxCell id="9emtBQFoJuCTRoUykFiL-46" value="6. Handle requests (such as phone number, adress)" style="rounded=0;whiteSpace=wrap;html=1;fillColor=#76608a;fontColor=#ffffff;strokeColor=#432D57;" vertex="1" parent="1">
          <mxGeometry x="590" y="840" width="120" height="60" as="geometry" />
        </mxCell>
        <mxCell id="9emtBQFoJuCTRoUykFiL-51" value="" style="edgeStyle=orthogonalEdgeStyle;rounded=0;orthogonalLoop=1;jettySize=auto;html=1;" edge="1" parent="1" source="9emtBQFoJuCTRoUykFiL-48" target="9emtBQFoJuCTRoUykFiL-50">
          <mxGeometry relative="1" as="geometry" />
        </mxCell>
        <mxCell id="9emtBQFoJuCTRoUykFiL-48" value="User response" style="ellipse;whiteSpace=wrap;html=1;fillColor=#6d8764;fontColor=#ffffff;strokeColor=#3A5431;" vertex="1" parent="1">
          <mxGeometry x="595" y="750" width="110" height="50" as="geometry" />
        </mxCell>
        <mxCell id="9emtBQFoJuCTRoUykFiL-52" value="no" style="edgeStyle=orthogonalEdgeStyle;rounded=0;orthogonalLoop=1;jettySize=auto;html=1;" edge="1" parent="1" source="9emtBQFoJuCTRoUykFiL-50" target="9emtBQFoJuCTRoUykFiL-44">
          <mxGeometry relative="1" as="geometry" />
        </mxCell>
        <mxCell id="9emtBQFoJuCTRoUykFiL-53" value="yes" style="edgeStyle=orthogonalEdgeStyle;rounded=0;orthogonalLoop=1;jettySize=auto;html=1;exitX=1;exitY=0.5;exitDx=0;exitDy=0;entryX=1;entryY=0.5;entryDx=0;entryDy=0;" edge="1" parent="1" source="9emtBQFoJuCTRoUykFiL-50" target="9emtBQFoJuCTRoUykFiL-46">
          <mxGeometry relative="1" as="geometry">
            <Array as="points">
              <mxPoint x="760" y="660" />
              <mxPoint x="760" y="870" />
            </Array>
          </mxGeometry>
        </mxCell>
        <mxCell id="9emtBQFoJuCTRoUykFiL-50" value="Request that still &lt;br&gt;needs to be &lt;br&gt;handled?" style="rhombus;whiteSpace=wrap;html=1;fillColor=#76608a;fontColor=#ffffff;strokeColor=#432D57;" vertex="1" parent="1">
          <mxGeometry x="585" y="610" width="130" height="100" as="geometry" />
        </mxCell>
      </root>
    </mxGraphModel>
  </diagram>
</mxfile>
